<svg xmlns="http://www.w3.org/2000/svg" xmlns:xlink="http://www.w3.org/1999/xlink" viewBox="0 0 256 256"><defs><clipPath id="a"><path fill="none" d="M253,67.6a12.1,12.1,0,0,0,2.8-8.7A64,64,0,0,0,192,0H64A64,64,0,0,0,.2,58.8,12.1,12.1,0,0,0,3,67.6L40,112,8.6,124.6a12,12,0,0,0-7.5,12.6L14.7,245.5A12,12,0,0,0,26.6,256H229.4a12,12,0,0,0,11.9-10.5l13.5-108.3a12,12,0,0,0-7.5-12.6L216,112Z" clip-rule="evenodd"/></clipPath></defs><title>license-chest-logo</title><g><g clip-path="url(#a)"><polygon fill="#333" fill-rule="evenodd" points="256 112 0 112 0 64 24 16 64 0 192 0 232 16 256 64 256 112"/><polygon fill="#258" fill-rule="evenodd" points="216 112 208 64 48 64 40 112 0 112 0 128 256 128 256 112 216 112"/><polygon fill="#39d" points="40 112 216 112 208 240 48 240 40 112"/><path fill="#eda" fill-rule="evenodd" d="M104,0C88,0,72,28.7,72,64H48C48,28.7,64,0,80,0Z"/><polygon fill="#333" fill-rule="evenodd" points="232 248 24 248 8 136 248 136 232 248"/><path fill="#eda" fill-rule="evenodd" d="M152,0c16,0,32,28.7,32,64h24c0-35.3-16-64-32-64Z"/><polygon fill="#eda" fill-rule="evenodd" points="80 256 56 256 48 128 72 128 80 256"/><polygon fill="#eda" fill-rule="evenodd" points="200 256 176 256 184 128 208 128 200 256"/><path fill="#e83" fill-rule="evenodd" d="M256,0H180a64,64,0,0,1,61.7,47.1,4,4,0,0,1-3.9,4.9H150l-.3-2a12,12,0,0,0-11.8-10H118.2a12,12,0,0,0-11.8,10l-.3,2H18.2a4,4,0,0,1-3.9-4.9A64,64,0,0,1,76,0H0V64H256Z"/><path fill="#e83" fill-rule="evenodd" d="M0,128V256H256V128ZM45.7,244a32,32,0,0,0-21.4-18.9L16,159a32,32,0,0,0,21.7-19H104v24a12,12,0,0,0,12,12h24a12,12,0,0,0,12-12V140h66.3A32,32,0,0,0,240,159l-8.3,66.1A32,32,0,0,0,210.3,244Z"/><path fill="#258" fill-rule="evenodd" d="M132.8,154.4a8,8,0,1,0-9.6,0l-2.3,7a2,2,0,0,0,1.9,2.6h10.5a2,2,0,0,0,1.9-2.6Z"/></g><path fill="#333" d="M72,88v40H88V92C88,89.8,80.8,88,72,88Z"/><path fill="#258" d="M72,100v28H88V104C88,101.8,80.8,100,72,100Z"/><path fill="#39d" d="M56,88v40H80V84.1a4,4,0,0,0-4.2-4C64.6,80.8,56,84.1,56,88Z"/><path fill="#fff" d="M56,104v24H80V96C66.7,96,56,99.6,56,104Z"/><path fill="#39d" d="M48,116.1V128H72v-8c0-3.9-8.6-7.2-19.8-7.9A4,4,0,0,0,48,116.1Z"/><path fill="#39d" d="M40,108.1V120H64v-8c0-3.9-8.6-7.2-19.8-7.9A4,4,0,0,0,40,108.1Z"/><path fill="#258" d="M32,116v4H48v-3.9a4,4,0,0,0-4.2-3.9C37,112.6,32,114.2,32,116Z"/><path fill="#fff" d="M48,120c-8.8,0-16-1.8-16-4v12H64V112C64,116.4,56.8,120,48,120Z"/><path fill="#258" fill-rule="evenodd" d="M208,128H136V96h48l19.3,19.3a16,16,0,0,1,4.7,11.3Z"/><path fill="#39d" fill-rule="evenodd" d="M200,128H128V76a4,4,0,0,1,4-4h37.4a16,16,0,0,1,11.3,4.7l14.6,14.6a16,16,0,0,1,4.7,11.3Z"/><path fill="#39d" fill-rule="evenodd" d="M168,128H96V92a4,4,0,0,1,4-4h37.4a16,16,0,0,1,11.3,4.7l14.6,14.6a16,16,0,0,1,4.7,11.3Z"/><rect width="72" height="16" x="128" y="112" fill="#fff"/><path fill="#39d" fill-rule="evenodd" d="M176,128H104V96h48l19.3,19.3a16,16,0,0,1,4.7,11.3Z"/><path fill="#333" fill-rule="evenodd" d="M168,72h1.4a16,16,0,0,1,11.3,4.7l14.6,14.6a16,16,0,0,1,4.7,11.3V104h0a8,8,0,0,0-8-8H180a4,4,0,0,1-4-4V80a8,8,0,0,0-8-8Z"/><path fill="#fff" d="M152,116V104H96v24h72v-8H156A4,4,0,0,1,152,116Z"/><path fill="#258" fill-rule="evenodd" d="M136,88h1.4a16,16,0,0,1,11.3,4.7l14.6,14.6a16,16,0,0,1,4.7,11.3V120h0a8,8,0,0,0-8-8H148a4,4,0,0,1-4-4V96a8,8,0,0,0-8-8Z"/><path fill="#333" d="M148.7,92.7A16,16,0,0,0,137.4,88H136a8,8,0,0,1,8,8v4a31.7,31.7,0,0,1,17,5Z"/></g></svg>